<mxfile host="app.diagrams.net" modified="2024-06-25T05:29:48.673Z" agent="Mozilla/5.0 (Windows NT 10.0; Win64; x64) AppleWebKit/537.36 (KHTML, like Gecko) Chrome/126.0.0.0 Safari/537.36" etag="H1DjEc55a8mb1_BHwHjP" version="24.6.2" type="device">
  <diagram id="C5RBs43oDa-KdzZeNtuy" name="Page-1">
    <mxGraphModel dx="223" dy="-1808" grid="1" gridSize="10" guides="1" tooltips="1" connect="1" arrows="1" fold="1" page="1" pageScale="1" pageWidth="827" pageHeight="1169" math="0" shadow="0">
      <root>
        <mxCell id="WIyWlLk6GJQsqaUBKTNV-0" />
        <mxCell id="WIyWlLk6GJQsqaUBKTNV-1" parent="WIyWlLk6GJQsqaUBKTNV-0" />
        <mxCell id="EN4u-1eWpw-JxCBXTlGH-0" value="" style="ellipse;fillColor=#09555B;labelBackgroundColor=none;strokeColor=#BAC8D3;fontColor=#EEEEEE;" vertex="1" parent="WIyWlLk6GJQsqaUBKTNV-1">
          <mxGeometry x="1347" y="2921" width="14" height="14" as="geometry" />
        </mxCell>
        <mxCell id="EN4u-1eWpw-JxCBXTlGH-1" value="登录界面" style="rounded=1;absoluteArcSize=1;arcSize=14;whiteSpace=wrap;strokeWidth=2;labelBackgroundColor=none;fillColor=#09555B;strokeColor=#BAC8D3;fontColor=#EEEEEE;" vertex="1" parent="WIyWlLk6GJQsqaUBKTNV-1">
          <mxGeometry x="1260" y="2985" width="80" height="34" as="geometry" />
        </mxCell>
        <mxCell id="EN4u-1eWpw-JxCBXTlGH-2" value="登录成功" style="rounded=1;absoluteArcSize=1;arcSize=14;whiteSpace=wrap;strokeWidth=2;labelBackgroundColor=none;fillColor=#09555B;strokeColor=#BAC8D3;fontColor=#EEEEEE;" vertex="1" parent="WIyWlLk6GJQsqaUBKTNV-1">
          <mxGeometry x="1152" y="3088" width="80" height="34" as="geometry" />
        </mxCell>
        <mxCell id="EN4u-1eWpw-JxCBXTlGH-3" value="登录失败" style="rounded=1;absoluteArcSize=1;arcSize=14;whiteSpace=wrap;strokeWidth=2;labelBackgroundColor=none;fillColor=#09555B;strokeColor=#BAC8D3;fontColor=#EEEEEE;" vertex="1" parent="WIyWlLk6GJQsqaUBKTNV-1">
          <mxGeometry x="1347" y="3092" width="81" height="34" as="geometry" />
        </mxCell>
        <mxCell id="EN4u-1eWpw-JxCBXTlGH-4" value="游戏界面&#xa;显示地图和方向键&#xa;显示背包和文本框" style="whiteSpace=wrap;strokeWidth=2;labelBackgroundColor=none;fillColor=#09555B;strokeColor=#BAC8D3;fontColor=#EEEEEE;" vertex="1" parent="WIyWlLk6GJQsqaUBKTNV-1">
          <mxGeometry x="1089" y="3191" width="207" height="65" as="geometry" />
        </mxCell>
        <mxCell id="EN4u-1eWpw-JxCBXTlGH-5" value="查看地图" style="rounded=1;absoluteArcSize=1;arcSize=14;whiteSpace=wrap;strokeWidth=2;labelBackgroundColor=none;fillColor=#09555B;strokeColor=#BAC8D3;fontColor=#EEEEEE;" vertex="1" parent="WIyWlLk6GJQsqaUBKTNV-1">
          <mxGeometry x="885" y="3325" width="80" height="34" as="geometry" />
        </mxCell>
        <mxCell id="EN4u-1eWpw-JxCBXTlGH-6" value="查看背包" style="rounded=1;absoluteArcSize=1;arcSize=14;whiteSpace=wrap;strokeWidth=2;labelBackgroundColor=none;fillColor=#09555B;strokeColor=#BAC8D3;fontColor=#EEEEEE;" vertex="1" parent="WIyWlLk6GJQsqaUBKTNV-1">
          <mxGeometry x="1055" y="3325" width="81" height="34" as="geometry" />
        </mxCell>
        <mxCell id="EN4u-1eWpw-JxCBXTlGH-7" value="使用物品" style="rounded=1;absoluteArcSize=1;arcSize=14;whiteSpace=wrap;strokeWidth=2;labelBackgroundColor=none;fillColor=#09555B;strokeColor=#BAC8D3;fontColor=#EEEEEE;" vertex="1" parent="WIyWlLk6GJQsqaUBKTNV-1">
          <mxGeometry x="1060" y="3443" width="80" height="34" as="geometry" />
        </mxCell>
        <mxCell id="EN4u-1eWpw-JxCBXTlGH-8" value="移动" style="rounded=1;absoluteArcSize=1;arcSize=14;whiteSpace=wrap;strokeWidth=2;labelBackgroundColor=none;fillColor=#09555B;strokeColor=#BAC8D3;fontColor=#EEEEEE;" vertex="1" parent="WIyWlLk6GJQsqaUBKTNV-1">
          <mxGeometry x="1241" y="3334" width="48" height="34" as="geometry" />
        </mxCell>
        <mxCell id="EN4u-1eWpw-JxCBXTlGH-9" value="边界警告" style="rounded=1;absoluteArcSize=1;arcSize=14;whiteSpace=wrap;strokeWidth=2;labelBackgroundColor=none;fillColor=#09555B;strokeColor=#BAC8D3;fontColor=#EEEEEE;" vertex="1" parent="WIyWlLk6GJQsqaUBKTNV-1">
          <mxGeometry x="1280" y="3449" width="81" height="34" as="geometry" />
        </mxCell>
        <mxCell id="EN4u-1eWpw-JxCBXTlGH-10" value="捡拾或投喂物品&#xa;描述效果" style="whiteSpace=wrap;strokeWidth=2;labelBackgroundColor=none;fillColor=#09555B;strokeColor=#BAC8D3;fontColor=#EEEEEE;" vertex="1" parent="WIyWlLk6GJQsqaUBKTNV-1">
          <mxGeometry x="1405" y="3428" width="137" height="65" as="geometry" />
        </mxCell>
        <mxCell id="EN4u-1eWpw-JxCBXTlGH-11" value="" style="startArrow=none;;exitX=0.02;exitY=0.8;entryX=0.5;entryY=0;rounded=0;labelBackgroundColor=none;strokeColor=#0B4D6A;fontColor=default;" edge="1" parent="WIyWlLk6GJQsqaUBKTNV-1" source="EN4u-1eWpw-JxCBXTlGH-0" target="EN4u-1eWpw-JxCBXTlGH-1">
          <mxGeometry relative="1" as="geometry" />
        </mxCell>
        <mxCell id="EN4u-1eWpw-JxCBXTlGH-12" value="登录成功" style="startArrow=none;;exitX=0.06;exitY=1;entryX=0.5;entryY=-0.01;rounded=0;labelBackgroundColor=none;strokeColor=#0B4D6A;fontColor=default;" edge="1" parent="WIyWlLk6GJQsqaUBKTNV-1" source="EN4u-1eWpw-JxCBXTlGH-1" target="EN4u-1eWpw-JxCBXTlGH-2">
          <mxGeometry relative="1" as="geometry" />
        </mxCell>
        <mxCell id="EN4u-1eWpw-JxCBXTlGH-13" value="登录失败" style="startArrow=none;;exitX=0.5;exitY=1;entryX=0.18;entryY=-0.01;rounded=0;labelBackgroundColor=none;strokeColor=#0B4D6A;fontColor=default;" edge="1" parent="WIyWlLk6GJQsqaUBKTNV-1" source="EN4u-1eWpw-JxCBXTlGH-1" target="EN4u-1eWpw-JxCBXTlGH-3">
          <mxGeometry x="-0.2837" y="-12" relative="1" as="geometry">
            <mxPoint as="offset" />
          </mxGeometry>
        </mxCell>
        <mxCell id="EN4u-1eWpw-JxCBXTlGH-14" value="重新输入" style="startArrow=none;;exitX=0.455;exitY=0.079;entryX=1;entryY=0.87;rounded=0;exitDx=0;exitDy=0;exitPerimeter=0;labelBackgroundColor=none;strokeColor=#0B4D6A;fontColor=default;" edge="1" parent="WIyWlLk6GJQsqaUBKTNV-1" source="EN4u-1eWpw-JxCBXTlGH-3" target="EN4u-1eWpw-JxCBXTlGH-1">
          <mxGeometry relative="1" as="geometry" />
        </mxCell>
        <mxCell id="EN4u-1eWpw-JxCBXTlGH-15" value="进入游戏" style="startArrow=none;;exitX=0.5;exitY=0.99;entryX=0.5;entryY=-0.01;rounded=0;labelBackgroundColor=none;strokeColor=#0B4D6A;fontColor=default;" edge="1" parent="WIyWlLk6GJQsqaUBKTNV-1" source="EN4u-1eWpw-JxCBXTlGH-2" target="EN4u-1eWpw-JxCBXTlGH-4">
          <mxGeometry relative="1" as="geometry" />
        </mxCell>
        <mxCell id="EN4u-1eWpw-JxCBXTlGH-16" value="点击地图图标" style="startArrow=none;;exitX=0;exitY=0.84;entryX=0.32;entryY=-0.01;rounded=0;labelBackgroundColor=none;strokeColor=#0B4D6A;fontColor=default;" edge="1" parent="WIyWlLk6GJQsqaUBKTNV-1" source="EN4u-1eWpw-JxCBXTlGH-4" target="EN4u-1eWpw-JxCBXTlGH-5">
          <mxGeometry relative="1" as="geometry">
            <Array as="points">
              <mxPoint x="983" y="3244" />
            </Array>
          </mxGeometry>
        </mxCell>
        <mxCell id="EN4u-1eWpw-JxCBXTlGH-17" value="返回" style="startArrow=none;;exitX=0.67;exitY=-0.01;entryX=0;entryY=0.97;rounded=0;labelBackgroundColor=none;strokeColor=#0B4D6A;fontColor=default;" edge="1" parent="WIyWlLk6GJQsqaUBKTNV-1" source="EN4u-1eWpw-JxCBXTlGH-5" target="EN4u-1eWpw-JxCBXTlGH-4">
          <mxGeometry x="-0.2283" y="-6" relative="1" as="geometry">
            <mxPoint as="offset" />
          </mxGeometry>
        </mxCell>
        <mxCell id="EN4u-1eWpw-JxCBXTlGH-18" value="点击背包图标" style="startArrow=none;;exitX=0.17;exitY=1;entryX=0.33;entryY=-0.01;rounded=0;labelBackgroundColor=none;strokeColor=#0B4D6A;fontColor=default;" edge="1" parent="WIyWlLk6GJQsqaUBKTNV-1" source="EN4u-1eWpw-JxCBXTlGH-4" target="EN4u-1eWpw-JxCBXTlGH-6">
          <mxGeometry relative="1" as="geometry" />
        </mxCell>
        <mxCell id="EN4u-1eWpw-JxCBXTlGH-19" value="选择物品" style="startArrow=none;;exitX=0.5;exitY=0.99;entryX=0.49;entryY=0.01;rounded=0;labelBackgroundColor=none;strokeColor=#0B4D6A;fontColor=default;" edge="1" parent="WIyWlLk6GJQsqaUBKTNV-1" source="EN4u-1eWpw-JxCBXTlGH-6" target="EN4u-1eWpw-JxCBXTlGH-7">
          <mxGeometry relative="1" as="geometry" />
        </mxCell>
        <mxCell id="EN4u-1eWpw-JxCBXTlGH-20" value="返回" style="startArrow=none;;exitX=0.67;exitY=-0.01;entryX=0.37;entryY=1;rounded=0;labelBackgroundColor=none;strokeColor=#0B4D6A;fontColor=default;" edge="1" parent="WIyWlLk6GJQsqaUBKTNV-1" source="EN4u-1eWpw-JxCBXTlGH-6" target="EN4u-1eWpw-JxCBXTlGH-4">
          <mxGeometry relative="1" as="geometry" />
        </mxCell>
        <mxCell id="EN4u-1eWpw-JxCBXTlGH-21" value="物品效果" style="startArrow=none;;exitX=0.85;exitY=0.01;entryX=0.54;entryY=1;rounded=0;labelBackgroundColor=none;strokeColor=#0B4D6A;fontColor=default;" edge="1" parent="WIyWlLk6GJQsqaUBKTNV-1" source="EN4u-1eWpw-JxCBXTlGH-7" target="EN4u-1eWpw-JxCBXTlGH-4">
          <mxGeometry relative="1" as="geometry" />
        </mxCell>
        <mxCell id="EN4u-1eWpw-JxCBXTlGH-22" value="选择方向" style="startArrow=none;;exitX=0.76;exitY=1;entryX=0.49;entryY=-0.01;rounded=0;labelBackgroundColor=none;strokeColor=#0B4D6A;fontColor=default;" edge="1" parent="WIyWlLk6GJQsqaUBKTNV-1" source="EN4u-1eWpw-JxCBXTlGH-4" target="EN4u-1eWpw-JxCBXTlGH-8">
          <mxGeometry relative="1" as="geometry" />
        </mxCell>
        <mxCell id="EN4u-1eWpw-JxCBXTlGH-23" value="边界无法移动" style="startArrow=none;;exitX=0.49;exitY=0.99;entryX=0.46;entryY=0.01;rounded=0;labelBackgroundColor=none;strokeColor=#0B4D6A;fontColor=default;" edge="1" parent="WIyWlLk6GJQsqaUBKTNV-1" source="EN4u-1eWpw-JxCBXTlGH-8" target="EN4u-1eWpw-JxCBXTlGH-9">
          <mxGeometry relative="1" as="geometry" />
        </mxCell>
        <mxCell id="EN4u-1eWpw-JxCBXTlGH-24" value="进入园区" style="startArrow=none;;exitX=0.99;exitY=0.74;entryX=0.4;entryY=-0.01;rounded=0;labelBackgroundColor=none;strokeColor=#0B4D6A;fontColor=default;" edge="1" parent="WIyWlLk6GJQsqaUBKTNV-1" source="EN4u-1eWpw-JxCBXTlGH-8" target="EN4u-1eWpw-JxCBXTlGH-10">
          <mxGeometry relative="1" as="geometry" />
        </mxCell>
        <mxCell id="EN4u-1eWpw-JxCBXTlGH-25" value="返回" style="startArrow=none;;exitX=0.74;exitY=0.01;entryX=0.97;entryY=1;rounded=0;labelBackgroundColor=none;strokeColor=#0B4D6A;fontColor=default;" edge="1" parent="WIyWlLk6GJQsqaUBKTNV-1" source="EN4u-1eWpw-JxCBXTlGH-9" target="EN4u-1eWpw-JxCBXTlGH-4">
          <mxGeometry relative="1" as="geometry" />
        </mxCell>
        <mxCell id="EN4u-1eWpw-JxCBXTlGH-26" value="交互结束" style="startArrow=none;;exitX=0.68;exitY=-0.01;entryX=1;entryY=0.82;rounded=0;labelBackgroundColor=none;strokeColor=#0B4D6A;fontColor=default;" edge="1" parent="WIyWlLk6GJQsqaUBKTNV-1" source="EN4u-1eWpw-JxCBXTlGH-10" target="EN4u-1eWpw-JxCBXTlGH-4">
          <mxGeometry relative="1" as="geometry" />
        </mxCell>
        <mxCell id="EN4u-1eWpw-JxCBXTlGH-27" value="初始失败" style="startArrow=none;;exitX=1.02;exitY=0.8;entryX=0.62;entryY=-0.01;rounded=0;labelBackgroundColor=none;strokeColor=#0B4D6A;fontColor=default;" edge="1" parent="WIyWlLk6GJQsqaUBKTNV-1" source="EN4u-1eWpw-JxCBXTlGH-0" target="EN4u-1eWpw-JxCBXTlGH-3">
          <mxGeometry relative="1" as="geometry" />
        </mxCell>
        <mxCell id="EN4u-1eWpw-JxCBXTlGH-28" value="" style="line;strokeWidth=1;fillColor=none;align=left;verticalAlign=middle;spacingTop=-1;spacingLeft=3;spacingRight=3;rotatable=0;labelPosition=right;points=[];portConstraint=eastwest;strokeColor=#BAC8D3;labelBackgroundColor=none;fontColor=#EEEEEE;" vertex="1" parent="WIyWlLk6GJQsqaUBKTNV-1">
          <mxGeometry x="1089" y="3214" width="207" height="8" as="geometry" />
        </mxCell>
        <mxCell id="EN4u-1eWpw-JxCBXTlGH-29" value="退出游戏" style="startArrow=none;;exitX=1;exitY=0.25;rounded=0;exitDx=0;exitDy=0;entryX=0;entryY=0;entryDx=0;entryDy=0;labelBackgroundColor=none;strokeColor=#0B4D6A;fontColor=default;" edge="1" parent="WIyWlLk6GJQsqaUBKTNV-1" source="EN4u-1eWpw-JxCBXTlGH-4" target="EN4u-1eWpw-JxCBXTlGH-30">
          <mxGeometry relative="1" as="geometry">
            <mxPoint x="1637" y="3302.5" as="sourcePoint" />
            <mxPoint x="1607" y="3322" as="targetPoint" />
          </mxGeometry>
        </mxCell>
        <mxCell id="EN4u-1eWpw-JxCBXTlGH-30" value="" style="ellipse;shape=endState;fillColor=#09555B;labelBackgroundColor=none;strokeColor=#BAC8D3;fontColor=#EEEEEE;" vertex="1" parent="WIyWlLk6GJQsqaUBKTNV-1">
          <mxGeometry x="1605" y="3317" width="14" height="14" as="geometry" />
        </mxCell>
      </root>
    </mxGraphModel>
  </diagram>
</mxfile>
